<?xml version="1.0" encoding="utf-8"?>
<!DOCTYPE svg PUBLIC "-//W3C//DTD SVG 1.1//EN" "http://www.w3.org/Graphics/SVG/1.1/DTD/svg11.dtd">
<svg version="1.1" id="Layer_1" xmlns="http://www.w3.org/2000/svg" xmlns:xlink="http://www.w3.org/1999/xlink" x="0px" y="0px"
	 width="360px" height="360px" viewBox="0 0 360 360" enable-background="new 0 0 360 360" xml:space="preserve">
<path fill="#686972" d="M288,238c0,27.613-22.387,50-50,50H122c-27.614,0-50-22.387-50-50V122c0-27.613,22.386-50,50-50h116
	c27.613,0,50,22.387,50,50V238z"/>
<path fill="#FFFFFF" d="M235,180c0,4.694-4.926,8.5-11,8.5h-88c-6.075,0-11-3.806-11-8.5l0,0c0-4.694,4.925-8.5,11-8.5h88
	C230.074,171.5,235,175.306,235,180L235,180z"/>
<path fill="#FFFFFF" d="M180,123.164c5.523,0,10,5.088,10,11.367v90.94c0,6.273-4.477,11.368-10,11.368l0,0
	c-5.521,0-10-5.095-10-11.368v-90.94C170,128.251,174.477,123.164,180,123.164L180,123.164z"/>
<path fill="#FFFFFF" d="M180,125.001c4.694,0,8.5,4.923,8.5,10.999v88c0,6.07-3.806,11-8.5,11l0,0c-4.693,0-8.5-4.93-8.5-11v-88
	C171.5,129.925,175.306,125.001,180,125.001L180,125.001z"/>
</svg>
